<svg height="461pt" fill="#ffffff" viewBox="0 -60 461 461" width="461pt" xmlns="http://www.w3.org/2000/svg"><path d="m301 293.828125c.074219 2.109375-.695312 4.15625-2.140625 5.691406-1.445313 1.535157-3.445313 2.429688-5.550781 2.480469h-130.121094c-4.488281-.066406-8.113281-3.683594-8.1875-8.171875v-15.828125h-155v49.882812c0 6.617188 5.882812 12.117188 12.5 12.117188h437c6.617188 0 11.5-5.5 11.5-12.117188v-49.882812h-160zm-223 22.171875h-31c-4.417969 0-8-3.582031-8-8s3.582031-8 8-8h31c4.417969 0 8 3.582031 8 8s-3.582031 8-8 8zm0 0"/><path d="m285 286v-16c.144531-4.476562 3.828125-8.023438 8.308594-8h141.691406v-249.882812c.070312-3.164063-1.125-6.21875-3.324219-8.496094-2.195312-2.273438-5.207031-3.5781252-8.371093-3.621094h-390.117188c-6.683594.046875-12.101562 5.433594-12.1875 12.117188v249.882812h142.1875c2.101562.007812 4.113281.859375 5.582031 2.363281 1.46875 1.503907 2.273438 3.535157 2.230469 5.636719v16zm-232-40c-4.417969 0-8-3.582031-8-8v-206c0-4.417969 3.582031-8 8-8h350c4.417969 0 8 3.582031 8 8v206c0 4.417969-3.582031 8-8 8zm0 0"/><path d="m61 40h334v190h-334zm0 0"/></svg>